<svg id="Layer_1" data-name="Layer 1" xmlns="http://www.w3.org/2000/svg" viewBox="0 0 1080 1080"><defs><style>.cls-1{fill:#f36;}.cls-2{fill:#3cf;}</style></defs><title>multipl-logo</title><g id="Layer_1-2" data-name="Layer 1-2"><path class="cls-1" d="M294.51,180h0a32.65,32.65,0,0,1,32.65,32.65h0a32.65,32.65,0,0,1-32.65,32.65h0a32.65,32.65,0,0,1-32.65-32.65h0A32.65,32.65,0,0,1,294.51,180Z"/><path class="cls-2" d="M376.35,180h0A32.65,32.65,0,0,1,409,212.68h0a32.65,32.65,0,0,1-32.65,32.65h0a32.65,32.65,0,0,1-32.65-32.65h0A32.65,32.65,0,0,1,376.35,180Z"/><path class="cls-2" d="M703.65,180h0a32.65,32.65,0,0,1,32.65,32.65h0a32.65,32.65,0,0,1-32.65,32.65h0A32.65,32.65,0,0,1,671,212.68h0A32.65,32.65,0,0,1,703.65,180Z"/><path class="cls-1" d="M785.49,180h0a32.65,32.65,0,0,1,32.65,32.65h0a32.65,32.65,0,0,1-32.65,32.65h0a32.65,32.65,0,0,1-32.65-32.65h0A32.65,32.65,0,0,1,785.49,180Z"/><path class="cls-1" d="M867.34,180h0A32.65,32.65,0,0,1,900,212.68h0a32.65,32.65,0,0,1-32.65,32.65h0a32.65,32.65,0,0,1-32.65-32.65h0A32.65,32.65,0,0,1,867.34,180Z"/><path class="cls-1" d="M212.66,261.87h0a32.65,32.65,0,0,1,32.65,32.65h0a32.65,32.65,0,0,1-32.65,32.66h0A32.65,32.65,0,0,1,180,294.52h0A32.65,32.65,0,0,1,212.66,261.87Z"/><path class="cls-1" d="M294.51,261.87h0a32.65,32.65,0,0,1,32.65,32.65h0a32.65,32.65,0,0,1-32.65,32.66h0a32.65,32.65,0,0,1-32.65-32.66h0A32.65,32.65,0,0,1,294.51,261.87Z"/><path class="cls-1" d="M376.35,261.87h0A32.65,32.65,0,0,1,409,294.52h0a32.65,32.65,0,0,1-32.65,32.66h0a32.65,32.65,0,0,1-32.65-32.66h0A32.65,32.65,0,0,1,376.35,261.87Z"/><path class="cls-2" d="M458.16,261.87h0a32.65,32.65,0,0,1,32.65,32.65h0a32.65,32.65,0,0,1-32.65,32.66h0a32.65,32.65,0,0,1-32.65-32.66h0A32.65,32.65,0,0,1,458.16,261.87Z"/><path class="cls-1" d="M703.65,261.87h0a32.65,32.65,0,0,1,32.65,32.65h0a32.65,32.65,0,0,1-32.65,32.66h0A32.65,32.65,0,0,1,671,294.52h0A32.65,32.65,0,0,1,703.65,261.87Z"/><path class="cls-1" d="M785.49,261.87h0a32.65,32.65,0,0,1,32.65,32.65h0a32.65,32.65,0,0,1-32.65,32.66h0a32.65,32.65,0,0,1-32.65-32.66h0A32.65,32.65,0,0,1,785.49,261.87Z"/><path class="cls-1" d="M867.34,261.87h0A32.65,32.65,0,0,1,900,294.52h0a32.65,32.65,0,0,1-32.65,32.66h0a32.65,32.65,0,0,1-32.65-32.66h0A32.65,32.65,0,0,1,867.34,261.87Z"/><path class="cls-1" d="M212.66,343.68h0a32.65,32.65,0,0,1,32.65,32.65h0A32.65,32.65,0,0,1,212.66,409h0A32.65,32.65,0,0,1,180,376.33h0A32.65,32.65,0,0,1,212.66,343.68Z"/><path class="cls-1" d="M294.51,343.68h0a32.65,32.65,0,0,1,32.65,32.65h0A32.65,32.65,0,0,1,294.51,409h0a32.65,32.65,0,0,1-32.65-32.65h0A32.65,32.65,0,0,1,294.51,343.68Z"/><path class="cls-1" d="M376.35,343.68h0A32.65,32.65,0,0,1,409,376.33h0A32.65,32.65,0,0,1,376.35,409h0a32.65,32.65,0,0,1-32.65-32.65h0A32.65,32.65,0,0,1,376.35,343.68Z"/><path class="cls-1" d="M458.16,343.68h0a32.65,32.65,0,0,1,32.65,32.65h0A32.65,32.65,0,0,1,458.16,409h0a32.65,32.65,0,0,1-32.65-32.65h0A32.65,32.65,0,0,1,458.16,343.68Z"/><path class="cls-2" d="M540,343.68h0a32.65,32.65,0,0,1,32.65,32.65h0A32.65,32.65,0,0,1,540,409h0a32.65,32.65,0,0,1-32.65-32.65h0A32.65,32.65,0,0,1,540,343.68Z"/><path class="cls-1" d="M621.84,343.68h0a32.65,32.65,0,0,1,32.65,32.65h0A32.65,32.65,0,0,1,621.84,409h0a32.65,32.65,0,0,1-32.65-32.65h0A32.65,32.65,0,0,1,621.84,343.68Z"/><path class="cls-1" d="M703.65,343.68h0a32.65,32.65,0,0,1,32.65,32.65h0A32.65,32.65,0,0,1,703.65,409h0A32.65,32.65,0,0,1,671,376.33h0A32.65,32.65,0,0,1,703.65,343.68Z"/><path class="cls-1" d="M785.49,343.68h0a32.65,32.65,0,0,1,32.65,32.65h0A32.65,32.65,0,0,1,785.49,409h0a32.65,32.65,0,0,1-32.65-32.65h0A32.65,32.65,0,0,1,785.49,343.68Z"/><path class="cls-1" d="M867.34,343.68h0A32.65,32.65,0,0,1,900,376.33h0A32.65,32.65,0,0,1,867.34,409h0a32.65,32.65,0,0,1-32.65-32.65h0A32.65,32.65,0,0,1,867.34,343.68Z"/><path class="cls-1" d="M212.66,425.52h0a32.65,32.65,0,0,1,32.65,32.65h0a32.65,32.65,0,0,1-32.65,32.66h0A32.65,32.65,0,0,1,180,458.17h0A32.65,32.65,0,0,1,212.66,425.52Z"/><path class="cls-1" d="M294.51,425.52h0a32.65,32.65,0,0,1,32.65,32.65h0a32.65,32.65,0,0,1-32.65,32.66h0a32.65,32.65,0,0,1-32.65-32.66h0A32.65,32.65,0,0,1,294.51,425.52Z"/><path class="cls-2" d="M376.35,425.52h0A32.65,32.65,0,0,1,409,458.17h0a32.65,32.65,0,0,1-32.65,32.66h0a32.65,32.65,0,0,1-32.65-32.66h0A32.65,32.65,0,0,1,376.35,425.52Z"/><path class="cls-1" d="M458.16,425.52h0a32.65,32.65,0,0,1,32.65,32.65h0a32.65,32.65,0,0,1-32.65,32.66h0a32.65,32.65,0,0,1-32.65-32.66h0A32.65,32.65,0,0,1,458.16,425.52Z"/><path class="cls-1" d="M540,425.52h0a32.65,32.65,0,0,1,32.65,32.65h0A32.65,32.65,0,0,1,540,490.83h0a32.65,32.65,0,0,1-32.65-32.66h0A32.65,32.65,0,0,1,540,425.52Z"/><path class="cls-1" d="M621.84,425.52h0a32.65,32.65,0,0,1,32.65,32.65h0a32.65,32.65,0,0,1-32.65,32.66h0a32.65,32.65,0,0,1-32.65-32.66h0A32.65,32.65,0,0,1,621.84,425.52Z"/><path class="cls-2" d="M703.65,425.52h0a32.65,32.65,0,0,1,32.65,32.65h0a32.65,32.65,0,0,1-32.65,32.66h0A32.65,32.65,0,0,1,671,458.17h0A32.65,32.65,0,0,1,703.65,425.52Z"/><path class="cls-1" d="M785.49,425.52h0a32.65,32.65,0,0,1,32.65,32.65h0a32.65,32.65,0,0,1-32.65,32.66h0a32.65,32.65,0,0,1-32.65-32.66h0A32.65,32.65,0,0,1,785.49,425.52Z"/><path class="cls-1" d="M867.34,425.52h0A32.65,32.65,0,0,1,900,458.17h0a32.65,32.65,0,0,1-32.65,32.66h0a32.65,32.65,0,0,1-32.65-32.66h0A32.65,32.65,0,0,1,867.34,425.52Z"/><path class="cls-1" d="M212.66,507.37h0A32.65,32.65,0,0,1,245.31,540h0a32.65,32.65,0,0,1-32.65,32.65h0A32.65,32.65,0,0,1,180,540h0A32.65,32.65,0,0,1,212.66,507.37Z"/><path class="cls-1" d="M294.51,507.37h0A32.65,32.65,0,0,1,327.16,540h0a32.65,32.65,0,0,1-32.65,32.65h0A32.65,32.65,0,0,1,261.86,540h0A32.65,32.65,0,0,1,294.51,507.37Z"/><path class="cls-2" d="M376.35,507.37h0A32.65,32.65,0,0,1,409,540h0a32.65,32.65,0,0,1-32.65,32.65h0A32.65,32.65,0,0,1,343.7,540h0A32.65,32.65,0,0,1,376.35,507.37Z"/><path class="cls-2" d="M458.16,507.37h0A32.65,32.65,0,0,1,490.81,540h0a32.65,32.65,0,0,1-32.65,32.65h0A32.65,32.65,0,0,1,425.51,540h0A32.65,32.65,0,0,1,458.16,507.37Z"/><path class="cls-1" d="M540,507.37h0A32.65,32.65,0,0,1,572.65,540h0A32.65,32.65,0,0,1,540,572.67h0A32.65,32.65,0,0,1,507.35,540h0A32.65,32.65,0,0,1,540,507.37Z"/><path class="cls-2" d="M621.84,507.37h0A32.65,32.65,0,0,1,654.49,540h0a32.65,32.65,0,0,1-32.65,32.65h0A32.65,32.65,0,0,1,589.19,540h0A32.65,32.65,0,0,1,621.84,507.37Z"/><path class="cls-2" d="M703.65,507.37h0A32.65,32.65,0,0,1,736.3,540h0a32.65,32.65,0,0,1-32.65,32.65h0A32.65,32.65,0,0,1,671,540h0A32.65,32.65,0,0,1,703.65,507.37Z"/><path class="cls-1" d="M785.49,507.37h0A32.65,32.65,0,0,1,818.14,540h0a32.65,32.65,0,0,1-32.65,32.65h0A32.65,32.65,0,0,1,752.84,540h0A32.65,32.65,0,0,1,785.49,507.37Z"/><path class="cls-1" d="M294.51,589.17h0a32.65,32.65,0,0,1,32.65,32.66h0a32.65,32.65,0,0,1-32.65,32.65h0a32.65,32.65,0,0,1-32.65-32.65h0A32.65,32.65,0,0,1,294.51,589.17Z"/><path class="cls-2" d="M376.35,589.17h0A32.65,32.65,0,0,1,409,621.83h0a32.65,32.65,0,0,1-32.65,32.65h0a32.65,32.65,0,0,1-32.65-32.65h0A32.65,32.65,0,0,1,376.35,589.17Z"/><path class="cls-2" d="M376.35,671h0A32.65,32.65,0,0,1,409,703.67h0a32.65,32.65,0,0,1-32.65,32.65h0a32.65,32.65,0,0,1-32.65-32.65h0A32.65,32.65,0,0,1,376.35,671Z"/><path class="cls-2" d="M458.16,589.17h0a32.65,32.65,0,0,1,32.65,32.66h0a32.65,32.65,0,0,1-32.65,32.65h0a32.65,32.65,0,0,1-32.65-32.65h0A32.65,32.65,0,0,1,458.16,589.17Z"/><path class="cls-2" d="M540,589.17h0a32.65,32.65,0,0,1,32.65,32.66h0A32.65,32.65,0,0,1,540,654.48h0a32.65,32.65,0,0,1-32.65-32.65h0A32.65,32.65,0,0,1,540,589.17Z"/><path class="cls-2" d="M703.65,589.17h0a32.65,32.65,0,0,1,32.65,32.66h0a32.65,32.65,0,0,1-32.65,32.65h0A32.65,32.65,0,0,1,671,621.83h0A32.65,32.65,0,0,1,703.65,589.17Z"/><path class="cls-1" d="M785.49,589.17h0a32.65,32.65,0,0,1,32.65,32.66h0a32.65,32.65,0,0,1-32.65,32.65h0a32.65,32.65,0,0,1-32.65-32.65h0A32.65,32.65,0,0,1,785.49,589.17Z"/><path class="cls-1" d="M212.66,671h0a32.65,32.65,0,0,1,32.65,32.65h0a32.65,32.65,0,0,1-32.65,32.65h0A32.65,32.65,0,0,1,180,703.67h0A32.65,32.65,0,0,1,212.66,671Z"/><path class="cls-1" d="M294.51,671h0a32.65,32.65,0,0,1,32.65,32.65h0a32.65,32.65,0,0,1-32.65,32.65h0a32.65,32.65,0,0,1-32.65-32.65h0A32.65,32.65,0,0,1,294.51,671Z"/><path class="cls-1" d="M785.49,671h0a32.65,32.65,0,0,1,32.65,32.65h0a32.65,32.65,0,0,1-32.65,32.65h0a32.65,32.65,0,0,1-32.65-32.65h0A32.65,32.65,0,0,1,785.49,671Z"/><path class="cls-1" d="M785.49,752.86h0a32.65,32.65,0,0,1,32.65,32.65h0a32.65,32.65,0,0,1-32.65,32.65h0a32.65,32.65,0,0,1-32.65-32.65h0A32.65,32.65,0,0,1,785.49,752.86Z"/><path class="cls-1" d="M212.66,752.86h0a32.65,32.65,0,0,1,32.65,32.65h0a32.65,32.65,0,0,1-32.65,32.65h0A32.65,32.65,0,0,1,180,785.51h0A32.65,32.65,0,0,1,212.66,752.86Z"/><path class="cls-1" d="M294.51,752.86h0a32.65,32.65,0,0,1,32.65,32.65h0a32.65,32.65,0,0,1-32.65,32.65h0a32.65,32.65,0,0,1-32.65-32.65h0A32.65,32.65,0,0,1,294.51,752.86Z"/><path class="cls-1" d="M867.34,752.86h0A32.65,32.65,0,0,1,900,785.51h0a32.65,32.65,0,0,1-32.65,32.65h0a32.65,32.65,0,0,1-32.65-32.65h0A32.65,32.65,0,0,1,867.34,752.86Z"/><path class="cls-1" d="M212.66,834.67h0a32.65,32.65,0,0,1,32.65,32.65h0A32.65,32.65,0,0,1,212.66,900h0A32.65,32.65,0,0,1,180,867.32h0A32.65,32.65,0,0,1,212.66,834.67Z"/><path class="cls-2" d="M130.86,261.87h0a32.65,32.65,0,0,1,32.65,32.65h0a32.65,32.65,0,0,1-32.65,32.66h0a32.65,32.65,0,0,1-32.65-32.66h0A32.65,32.65,0,0,1,130.86,261.87Z"/><path class="cls-2" d="M130.86,343.68h0a32.65,32.65,0,0,1,32.65,32.65h0A32.65,32.65,0,0,1,130.86,409h0a32.65,32.65,0,0,1-32.65-32.65h0A32.65,32.65,0,0,1,130.86,343.68Z"/><path class="cls-2" d="M130.86,425.52h0a32.65,32.65,0,0,1,32.65,32.65h0a32.65,32.65,0,0,1-32.65,32.66h0a32.65,32.65,0,0,1-32.65-32.66h0A32.65,32.65,0,0,1,130.86,425.52Z"/><path class="cls-2" d="M130.86,834.67h0a32.65,32.65,0,0,1,32.65,32.65h0A32.65,32.65,0,0,1,130.86,900h0a32.65,32.65,0,0,1-32.65-32.65h0A32.65,32.65,0,0,1,130.86,834.67Z"/><path class="cls-2" d="M49,180h0a32.65,32.65,0,0,1,32.65,32.65h0A32.65,32.65,0,0,1,49,245.33h0a32.65,32.65,0,0,1-32.65-32.65h0A32.65,32.65,0,0,1,49,180Z"/><path class="cls-2" d="M49,261.87h0a32.65,32.65,0,0,1,32.65,32.65h0A32.65,32.65,0,0,1,49,327.18h0a32.65,32.65,0,0,1-32.65-32.66h0A32.65,32.65,0,0,1,49,261.87Z"/><path class="cls-1" d="M867.34,834.67h0A32.65,32.65,0,0,1,900,867.32h0A32.65,32.65,0,0,1,867.34,900h0a32.65,32.65,0,0,1-32.65-32.65h0A32.65,32.65,0,0,1,867.34,834.67Z"/><path class="cls-1" d="M867.34,589.17h0A32.65,32.65,0,0,1,900,621.83h0a32.65,32.65,0,0,1-32.65,32.65h0a32.65,32.65,0,0,1-32.65-32.65h0A32.65,32.65,0,0,1,867.34,589.17Z"/><path class="cls-1" d="M867.34,671h0A32.65,32.65,0,0,1,900,703.67h0a32.65,32.65,0,0,1-32.65,32.65h0a32.65,32.65,0,0,1-32.65-32.65h0A32.65,32.65,0,0,1,867.34,671Z"/><path class="cls-2" d="M949.14,343.68h0a32.65,32.65,0,0,1,32.65,32.65h0A32.65,32.65,0,0,1,949.14,409h0a32.65,32.65,0,0,1-32.65-32.65h0A32.65,32.65,0,0,1,949.14,343.68Z"/><path class="cls-2" d="M949.14,671h0a32.65,32.65,0,0,1,32.65,32.65h0a32.65,32.65,0,0,1-32.65,32.65h0a32.65,32.65,0,0,1-32.65-32.65h0A32.65,32.65,0,0,1,949.14,671Z"/><path class="cls-2" d="M949.14,834.67h0a32.65,32.65,0,0,1,32.65,32.65h0A32.65,32.65,0,0,1,949.14,900h0a32.65,32.65,0,0,1-32.65-32.65h0A32.65,32.65,0,0,1,949.14,834.67Z"/><path class="cls-2" d="M949.14,180h0a32.65,32.65,0,0,1,32.65,32.65h0a32.65,32.65,0,0,1-32.65,32.65h0a32.65,32.65,0,0,1-32.65-32.65h0A32.65,32.65,0,0,1,949.14,180Z"/><path class="cls-2" d="M949.14,261.87h0a32.65,32.65,0,0,1,32.65,32.65h0a32.65,32.65,0,0,1-32.65,32.66h0a32.65,32.65,0,0,1-32.65-32.66h0A32.65,32.65,0,0,1,949.14,261.87Z"/><path class="cls-2" d="M949.14,752.86h0a32.65,32.65,0,0,1,32.65,32.65h0a32.65,32.65,0,0,1-32.65,32.65h0a32.65,32.65,0,0,1-32.65-32.65h0A32.65,32.65,0,0,1,949.14,752.86Z"/><path class="cls-2" d="M1031,261.87h0a32.65,32.65,0,0,1,32.65,32.65h0A32.65,32.65,0,0,1,1031,327.18h0a32.65,32.65,0,0,1-32.65-32.66h0A32.65,32.65,0,0,1,1031,261.87Z"/><path class="cls-2" d="M1031,834.67h0a32.65,32.65,0,0,1,32.65,32.65h0A32.65,32.65,0,0,1,1031,900h0a32.65,32.65,0,0,1-32.65-32.65h0A32.65,32.65,0,0,1,1031,834.67Z"/><path class="cls-2" d="M1031,752.86h0a32.65,32.65,0,0,1,32.65,32.65h0A32.65,32.65,0,0,1,1031,818.16h0a32.65,32.65,0,0,1-32.65-32.65h0A32.65,32.65,0,0,1,1031,752.86Z"/></g></svg>